<svg xmlns="http://www.w3.org/2000/svg" viewBox="0 0 85.3 104.7"><g id="Livello_2" data-name="Livello 2"><g id="Object"><path d="M82.5,40.3v-.5a39.9,39.9,0,0,0-79.7,0v.5a13.3,13.3,0,0,0-2.7,10L6.9,92.4c1.1,7,7.8,12.3,15.7,12.3H62.7c7.9,0,14.6-5.3,15.6-12.3l6.9-42.1A13.3,13.3,0,0,0,82.5,40.3ZM42.6,7A32.9,32.9,0,0,1,75.1,35.1a16.9,16.9,0,0,0-5.6-.9H60.2a18.4,18.4,0,0,0-35.1,0H15.8a16.9,16.9,0,0,0-5.6.9A32.8,32.8,0,0,1,42.6,7Zm10,27.2H32.7a11.3,11.3,0,0,1,19.9,0Zm25.6,15L71.4,91.4c-.5,3.6-4.3,6.3-8.7,6.3H22.6c-4.5,0-8.2-2.7-8.7-6.4L7.1,49.2a6,6,0,0,1,1.5-5,9.6,9.6,0,0,1,7.2-3H69.5a9.6,9.6,0,0,1,7.2,3A6.4,6.4,0,0,1,78.2,49.2Z" style="fill:#fff"/><path d="M57.4,53.7a3.5,3.5,0,0,0-3.5,3.5c0,1-3.9,3.9-11.3,3.9s-11.2-2.9-11.2-3.9a3.5,3.5,0,0,0-7,0c0,6.2,7.8,10.9,18.2,10.9s18.3-4.7,18.3-10.9A3.5,3.5,0,0,0,57.4,53.7Z" style="fill:#fff"/></g></g></svg>