<svg xmlns="http://www.w3.org/2000/svg" viewBox="0 0 530.3 550"><g id="Livello_2" data-name="Livello 2"><g id="Object"><path d="M523.3,236.3l-.6-3.1-4.6,1a52.3,52.3,0,0,1-24.7-2.1c-27.4-9.3-53.8-39.2-44.5-66.8,1.4-3.9-2.8-7.5-.7-10.9a49.8,49.8,0,0,1-20.8-2.6,52.1,52.1,0,0,1-33-33.6,51.4,51.4,0,0,1-2.1-21.8c-9.7,10.1-10.5,16.6-23.9,18.4a56.7,56.7,0,0,1-25.4-2.4c-30.7-10.4-46.7-45.3-35.6-77.9a52.4,52.4,0,0,1,2.8-6.9c0-.1.1-.3.1-.4C182,1.2,57.2,74,14,201.3-32.7,339.4,41.3,489.2,179.3,536a264.4,264.4,0,0,0,61.1,12.9C359.1,559.7,474.1,488.5,514,370.7A263.4,263.4,0,0,0,523.3,236.3Zm-176,77.9A88.1,88.1,0,0,1,266.6,374a86.8,86.8,0,0,1-30.8-4.7,87.9,87.9,0,0,1,56.4-166.6h.2A88,88,0,0,1,347.3,314.2Z" style="fill:#e4b987"/><path d="M525.9,252.5C451,365.7,329,491,145.2,521.7a263.5,263.5,0,0,0,95.2,27.2C359.1,559.7,474.1,488.5,514,370.7A264.1,264.1,0,0,0,525.9,252.5Z" style="fill:#daa56a"/><path d="M525.3,206.5l-4.5,1a38.9,38.9,0,0,0,5.1,2.1Z" style="fill:#d77c9c"/><path d="M525.9,209.6a38.9,38.9,0,0,1-5.1-2.1,52.2,52.2,0,0,1-57.4-68.9,51.7,51.7,0,0,1,5.1-10.9,50,50,0,0,1-20.8-2.6,51.7,51.7,0,0,1-32.9-33.6,53.3,53.3,0,0,1-2.2-21.8,61,61,0,0,1-35.7,18.4,56.7,56.7,0,0,1-25.4-2.4c-30.7-10.5-46.7-45.3-35.6-77.9.8-2.4,1.8-4.7,2.8-7C201-8.6,87.4,62.3,47.7,179.3.9,317.4,74.9,467.2,213,514c10,3.4,235.4,53.5,303.6-170C530.5,298.7,534.3,253,525.9,209.6ZM350,287.5A88,88,0,1,1,294.9,176h.2A88,88,0,0,1,350,287.5Z" style="fill:#d0527f"/><path d="M525.3,206.5l-4.5,1a38.9,38.9,0,0,0,5.1,2.1Z" style="fill:#d77c9c"/><path d="M530.1,246.1C463.2,349.3,356.9,464.3,200.2,509.3L213,514c10,3.4,235.4,53.5,303.6-170C526.6,311.2,531.4,278.3,530.1,246.1Z" style="fill:#cd4176"/><path d="M294.8,52.5V26.6h-5.6C161.7,26.5,58.4,129.9,58.4,257.3A229.5,229.5,0,0,0,106.2,398,229.5,229.5,0,0,1,75.5,283C75.5,159.4,172.7,58.5,294.8,52.5Z" style="fill:#d36a99"/><rect x="131" y="322" width="14.2" height="43.94" transform="translate(-121.3 79.2) rotate(-22.5)" style="fill:#a1c6d9"/><rect x="370.2" y="102.1" width="14.2" height="43.94" transform="translate(220.8 489.2) rotate(-85)" style="fill:#a1c6d9"/><rect x="93.7" y="206.1" width="43.9" height="14.23" transform="matrix(0.85, -0.53, 0.53, 0.85, -95.8, 94.4)" style="fill:#f4d331"/><rect x="444.7" y="322" width="14.2" height="43.94" transform="translate(-41 626.1) rotate(-67.1)" style="fill:#a1c6d9"/><rect x="222.7" y="76.3" width="14.2" height="43.94" transform="translate(32.6 251.8) rotate(-61)" style="fill:#c72b2c"/><rect x="364.8" y="403.3" width="14.2" height="43.94" transform="translate(-190.7 374.3) rotate(-43.7)" style="fill:#f4d331"/><rect x="207.8" y="421.2" width="43.9" height="14.23" transform="translate(-192.8 188.2) rotate(-32.2)" style="fill:#c72b2c"/><rect x="417.9" y="235.7" width="43.9" height="14.23" transform="translate(-61.8 271.6) rotate(-32.2)" style="fill:#f4d331"/></g></g></svg>